<?xml version="1.0" encoding="utf-8"?>
<!-- Generator: Adobe Illustrator 21.1.0, SVG Export Plug-In . SVG Version: 6.00 Build 0)  -->
<svg version="1.1" id="Слой_2" xmlns="http://www.w3.org/2000/svg" xmlns:xlink="http://www.w3.org/1999/xlink" x="0px" y="0px"
	 viewBox="0 0 583.7 513.9" style="enable-background:new 0 0 583.7 513.9;" xml:space="preserve">
<style type="text/css">
	.st0{fill:#B4F1ED;}
</style>
<g>
	<g>
		<path class="st0" d="M221.7,0v513.9H102.8V95.5H0V0H221.7z"/>
	</g>
	<g>
		<g>
			<g>
				<path d="M235.4,385.9c-56,0-101.5-45.5-101.5-101.5s45.5-101.5,101.5-101.5s101.5,45.5,101.5,101.5S291.4,385.9,235.4,385.9z
					 M235.4,202.9c-44.9,0-81.5,36.6-81.5,81.5s36.6,81.5,81.5,81.5s81.5-36.6,81.5-81.5S280.4,202.9,235.4,202.9z"/>
			</g>
		</g>
		<g>
			<g>
				<path d="M484.9,513.9c-33.9,0-61.5-27.6-61.5-61.5s27.6-61.5,61.5-61.5s61.5,27.6,61.5,61.5S518.9,513.9,484.9,513.9z
					 M484.9,410.9c-22.9,0-41.5,18.6-41.5,41.5s18.6,41.5,41.5,41.5c22.9,0,41.5-18.6,41.5-41.5S507.8,410.9,484.9,410.9z"/>
			</g>
		</g>
		<g>
			<g>
				<path d="M215.5,513.9c-33.9,0-61.5-27.6-61.5-61.5s27.6-61.5,61.5-61.5s61.5,27.6,61.5,61.5S249.4,513.9,215.5,513.9z
					 M215.5,410.9c-22.9,0-41.5,18.6-41.5,41.5s18.6,41.5,41.5,41.5s41.5-18.6,41.5-41.5S238.4,410.9,215.5,410.9z"/>
			</g>
		</g>
		<g>
			<g>
				<path d="M569.4,351.4h-96c-16.5,0-30-13.5-30-30v-101h20v101.1c0,5.5,4.5,10,10,10h96V351.4z"/>
			</g>
		</g>
		<g>
			<g>
				<polygon points="201.4,318.9 189.4,302.9 225.4,275.9 225.4,227.4 245.4,227.4 245.4,285.9 				"/>
			</g>
		</g>
		<g>
			<path d="M577.9,311.9l-59.5-82.4c-8.7-12-22.7-19.2-37.5-19.2h-75.7c-4,0-7.8,0.8-11.3,2.1v-46c0-12.4-10.1-22.5-22.5-22.5H106.9
				c-12.4,0-22.5,10.1-22.5,22.5v273.5c0,12.4,10.1,22.5,22.5,22.5h57v-20h-57c-1.4,0-2.5-1.1-2.5-2.5V166.4c0-1.4,1.1-2.5,2.5-2.5
				h264.5c1.4,0,2.5,1.1,2.5,2.5v75.2v190.5v7.8c0,1.4-1.1,2.5-2.5,2.5H267v20h104.5c0.6,0,1.1,0,1.7-0.1h28.4
				c1.3,0.1,2.7,0.1,4.1,0h5.4h22.5v-20h-28.3h-0.8c-3.4,0.3-5.7-1.1-7-2.4c-2.1-2-3.4-4.8-3.4-7.9V241.6c0-6.2,5-11.3,11.3-11.3
				h75.7c8.4,0,16.4,4.1,21.3,10.9l59.5,82.4c1.2,1.6,1.8,3.5,1.8,5.5v103c0,3.1-1.2,5.9-3.4,7.9c-1.4,1.3-3.7,2.7-7,2.4h-16.6v20
				h15.4c0.7,0,1.4,0.1,2.1,0.1c7.3,0,14.2-2.7,19.7-7.7c6.3-5.7,9.8-14,9.8-22.6v-103C583.4,322.9,581.5,317,577.9,311.9z"/>
		</g>
	</g>
</g>
</svg>
