<?xml version="1.0" encoding="utf-8"?>
<!-- Generator: Adobe Illustrator 21.1.0, SVG Export Plug-In . SVG Version: 6.00 Build 0)  -->
<svg version="1.1" id="Слой_2" xmlns="http://www.w3.org/2000/svg" xmlns:xlink="http://www.w3.org/1999/xlink" x="0px" y="0px"
	 viewBox="0 0 588.8 522.7" style="enable-background:new 0 0 588.8 522.7;" xml:space="preserve">
<style type="text/css">
	.st0{fill:#B4F1ED;}
</style>
<g>
	<g>
		<path class="st0" d="M412.6,425.8v96.9H24.3v-77.1l198.2-187.2c45.5-43.3,53.6-69.7,53.6-94.7c0-40.4-27.9-63.9-82.2-63.9
			c-44,0-81.5,16.9-106.5,51.4L0.8,95.4C40.4,37.4,112.4,0,204.9,0c114.5,0,190.9,58.7,190.9,152c0,49.9-13.9,95.4-85.9,162.2
			L191.6,425.8H412.6z"/>
	</g>
	<g>
		<g>
			<path d="M490.1,522.7c-33.9,0-61.5-27.6-61.5-61.5s27.6-61.5,61.5-61.5s61.5,27.6,61.5,61.5S524,522.7,490.1,522.7z M490.1,419.7
				c-22.9,0-41.5,18.6-41.5,41.5s18.6,41.5,41.5,41.5c22.9,0,41.5-18.6,41.5-41.5S513,419.7,490.1,419.7z"/>
		</g>
	</g>
	<g>
		<g>
			<path d="M220.6,522.7c-33.9,0-61.5-27.6-61.5-61.5s27.6-61.5,61.5-61.5s61.5,27.6,61.5,61.5S254.5,522.7,220.6,522.7z
				 M220.6,419.7c-22.9,0-41.5,18.6-41.5,41.5s18.6,41.5,41.5,41.5s41.5-18.6,41.5-41.5S243.5,419.7,220.6,419.7z"/>
		</g>
	</g>
	<g>
		<g>
			<g>
				<path d="M574.6,360.2h-96c-16.5,0-30-13.5-30-30v-101h20v101.1c0,5.5,4.5,10,10,10h96V360.2z"/>
			</g>
		</g>
		<g>
			<path d="M583,320.7l-59.5-82.4c-8.7-12-22.7-19.2-37.5-19.2h-75.7c-4,0-7.8,0.8-11.3,2.1v-46c0-12.4-10.1-22.5-22.5-22.5H112.1
				c-12.4,0-22.5,10.1-22.5,22.5v273.5c0,12.4,10.1,22.5,22.5,22.5h57v-20h-57c-1.4,0-2.5-1.1-2.5-2.5V175.2c0-1.4,1.1-2.5,2.5-2.5
				h264.5c1.4,0,2.5,1.1,2.5,2.5v75.2v190.5v7.8c0,1.4-1.1,2.5-2.5,2.5H272.1v20h104.5c0.6,0,1.1,0,1.7-0.1h28.4
				c1.3,0.1,2.7,0.1,4.1,0h5.4h22.5v-20h-28.3h-0.8c-3.4,0.3-5.7-1.1-7-2.4c-2.1-2-3.4-4.8-3.4-7.9V250.4c0-6.2,5-11.3,11.3-11.3
				h75.7c8.4,0,16.4,4.1,21.3,10.9l59.5,82.4c1.2,1.6,1.8,3.5,1.8,5.5v103c0,3.1-1.2,5.9-3.4,7.9c-1.4,1.3-3.7,2.7-7,2.4h-16.6v20
				h15.4c0.7,0,1.4,0.1,2.1,0.1c7.3,0,14.2-2.7,19.7-7.7c6.3-5.7,9.8-14,9.8-22.6V338C588.6,331.7,586.7,325.8,583,320.7z"/>
		</g>
		<g>
			<g>
				<path d="M337.7,355.8h-247V215.3h247c9.7,0,17.7,7.9,17.7,17.7v105.2C355.3,347.9,347.4,355.8,337.7,355.8z M110.7,335.8h224.7
					V235.3H110.7V335.8z"/>
			</g>
		</g>
		<g>
			<g>
				<path d="M151.6,270.8v11.8h20.7v8.3h-20.7v16.3h-10.4v-44.8H175v8.3h-23.4V270.8z"/>
			</g>
			<g>
				<path d="M210.6,307.3l-8.6-12.5h-0.5h-9v12.5h-10.4v-44.8h19.4c12,0,19.5,6.2,19.5,16.3c0,6.7-3.4,11.6-9.2,14.1l10,14.4H210.6z
					 M200.9,270.9h-8.4v15.6h8.4c6.3,0,9.5-2.9,9.5-7.8C210.4,273.8,207.2,270.9,200.9,270.9z"/>
			</g>
			<g>
				<path d="M263.8,299v8.3h-34.7v-44.8H263v8.3h-23.5v9.7h20.8v8.1h-20.8V299H263.8z"/>
			</g>
			<g>
				<path d="M306.7,299v8.3H272v-44.8h33.8v8.3h-23.5v9.7h20.8v8.1h-20.8V299H306.7z"/>
			</g>
		</g>
	</g>
</g>
</svg>
