<?xml version="1.0" encoding="utf-8"?>
<!-- Generator: Adobe Illustrator 21.1.0, SVG Export Plug-In . SVG Version: 6.00 Build 0)  -->
<svg version="1.1" id="Слой_2" xmlns="http://www.w3.org/2000/svg" xmlns:xlink="http://www.w3.org/1999/xlink" x="0px" y="0px"
	 viewBox="0 0 508.3 522.7" style="enable-background:new 0 0 508.3 522.7;" xml:space="preserve">
<style type="text/css">
	.st0{fill:#B4F1ED;}
</style>
<g>
	<g>
		<path class="st0" d="M409.2,356.8c0,86.6-66.8,165.9-212.9,165.9c-71.9,0-146.1-19.8-196-55.1l46.3-91
			c38.9,29.4,93.2,46.3,146.8,46.3c59.5,0,96.2-24.2,96.2-66.1c0-38.9-28.6-63.1-96.2-63.1h-54.3v-78.6L244.8,95.4H25.9V0h359.7
			v77.1l-116,132.1C362.2,223.9,409.2,281.2,409.2,356.8z"/>
	</g>
	<g>
		<g>
			<path d="M301.5,451.8H118.2c-13.6,0-24.8-11.1-24.8-24.8V158.7c0-13.6,11.1-24.8,24.8-24.8h258c13.6,0,24.8,11.1,24.8,24.8v116.6
				h-20V158.7c0-2.6-2.1-4.8-4.8-4.8h-258c-2.6,0-4.8,2.1-4.8,4.8v268.4c0,2.6,2.1,4.8,4.8,4.8h183.3V451.8z"/>
		</g>
		<g>
			<path d="M391,499.9c-64.7,0-117.3-52.6-117.3-117.3S326.3,265.3,391,265.3s117.3,52.6,117.3,117.3S455.7,499.9,391,499.9z
				 M391,285.2c-53.7,0-97.3,43.7-97.3,97.3s43.7,97.3,97.3,97.3s97.3-43.7,97.3-97.3S444.7,285.2,391,285.2z"/>
		</g>
		<g>
			<rect x="373.5" y="322.3" width="35" height="25"/>
		</g>
		<g>
			<rect x="373.5" y="371.8" width="35" height="81"/>
		</g>
		<g>
			<rect x="145.5" y="203.8" width="25.5" height="20"/>
		</g>
		<g>
			<rect x="190" y="203.8" width="153.5" height="20"/>
		</g>
		<g>
			<rect x="145.5" y="248.3" width="25.5" height="20"/>
		</g>
		<g>
			<rect x="190" y="248.3" width="153.5" height="20"/>
		</g>
		<g>
			<rect x="145.5" y="292.8" width="25.5" height="20"/>
		</g>
		<g>
			<rect x="190" y="292.8" width="129.1" height="20"/>
		</g>
		<g>
			<rect x="145.5" y="337.3" width="25.5" height="20"/>
		</g>
		<g>
			<rect x="190" y="337.3" width="99.6" height="20"/>
		</g>
	</g>
</g>
</svg>
