<?xml version="1.0" encoding="utf-8"?>
<!-- Generator: Adobe Illustrator 21.1.0, SVG Export Plug-In . SVG Version: 6.00 Build 0)  -->
<svg version="1.1" id="Слой_2" xmlns="http://www.w3.org/2000/svg" xmlns:xlink="http://www.w3.org/1999/xlink" x="0px" y="0px"
	 viewBox="0 0 565.7 513.9" style="enable-background:new 0 0 565.7 513.9;" xml:space="preserve">
<style type="text/css">
	.st0{fill:#B4F1ED;}
</style>
<g>
	<g>
		<path class="st0" d="M476.4,406h-83.7v107.9h-116V406H0v-80L242.3,0h124.8L142.4,309.1h138v-96.2h112.3v96.2h83.7V406z"/>
	</g>
	<g>
		<g>
			<path d="M467.2,513.9c-33.9,0-61.5-27.6-61.5-61.5s27.6-61.5,61.5-61.5s61.5,27.6,61.5,61.5S501.2,513.9,467.2,513.9z
				 M467.2,410.9c-22.9,0-41.5,18.6-41.5,41.5s18.6,41.5,41.5,41.5c22.9,0,41.5-18.6,41.5-41.5S490.1,410.9,467.2,410.9z"/>
		</g>
	</g>
	<g>
		<g>
			<path d="M197.8,513.9c-33.9,0-61.5-27.6-61.5-61.5s27.6-61.5,61.5-61.5s61.5,27.6,61.5,61.5S231.7,513.9,197.8,513.9z
				 M197.8,410.9c-22.9,0-41.5,18.6-41.5,41.5s18.6,41.5,41.5,41.5s41.5-18.6,41.5-41.5S220.7,410.9,197.8,410.9z"/>
		</g>
	</g>
	<g>
		<g>
			<path d="M551.7,351.4h-96c-16.5,0-30-13.5-30-30v-101h20v101.1c0,5.5,4.5,10,10,10h96V351.4z"/>
		</g>
	</g>
	<g>
		<path d="M86.7,166.4v273.5c0,1.4,1.1,2.5,2.5,2.5h57v20h-57c-12.4,0-22.5-10.1-22.5-22.5V166.4c0-12.4,10.1-22.5,22.5-22.5h62.4
			c-0.2,2-0.3,4.1-0.3,6.2c0,3.6,0.8,8.3,2.1,13.8H89.2C87.9,163.9,86.7,165.1,86.7,166.4z"/>
	</g>
	<g>
		<path d="M238.7,145c0,7.2-2.6,13.8-6.8,19h-46.1c-4.2-5.2-6.8-11.8-6.8-19c0-0.4,0-0.7,0-1h20c0,0.3-0.1,0.7-0.1,1
			c0,5.4,4.4,9.9,9.9,9.9c5.4,0,9.9-4.4,9.9-9.9c0-0.4,0-0.7,0-1h20C238.7,144.3,238.7,144.6,238.7,145z"/>
	</g>
	<g>
		<path d="M565.7,329.1v103c0,8.6-3.6,16.9-9.8,22.6c-5.5,5-12.4,7.7-19.7,7.7c-0.7,0-1.4,0-2.1-0.1h-15.4v-20h16.6
			c3.4,0.3,5.7-1.2,7-2.4c2.1-2,3.4-4.8,3.4-7.9V329c0-2-0.6-3.9-1.8-5.5l-59.5-82.4c-4.9-6.8-12.9-10.9-21.3-10.9h-75.7
			c-6.2,0-11.3,5.1-11.3,11.3V432c0,3.1,1.2,5.9,3.4,7.9c1.4,1.3,3.7,2.7,7,2.4h0.8h28.3v20h-27.9c-1.4,0.1-2.7,0.1-4.1,0h-28.3
			c-0.6,0-1.1,0.1-1.7,0.1H249.3v-20h104.5c1.4,0,2.5-1.1,2.5-2.5V166.4c0-1.4-1.1-2.5-2.5-2.5h-89.5c1.4-5.5,2.1-10.2,2.1-13.8
			c0-2.1-0.1-4.2-0.3-6.2h87.8c12.4,0,22.5,10.1,22.5,22.5v46c3.5-1.4,7.3-2.1,11.3-2.1h75.7c14.8,0,28.8,7.2,37.5,19.2l59.5,82.4
			C563.8,317,565.7,322.9,565.7,329.1z"/>
	</g>
	<g>
		<g>
			<path d="M286.1,143.9c-3.2-39.9-36.6-71.3-77.3-71.3s-74.1,31.5-77.3,71.3c-0.2,2-0.3,4.1-0.3,6.2c0,3.9,0.6,8.5,1.7,13.8
				c10,47.7,60.6,146,66.9,158.2l8.9,17.1l8.9-17.1c6.3-12.2,56.9-110.5,66.9-158.2c1.1-5.3,1.7-10,1.7-13.8
				C286.3,148,286.3,146,286.1,143.9z M208.8,295.4c-18.5-37.1-47.4-98.9-55.4-131.5c-1.4-5.5-2.1-10.2-2.1-13.8
				c0-2.1,0.1-4.2,0.3-6.2c3.1-28.8,27.5-51.3,57.2-51.3c29.6,0,54.1,22.5,57.2,51.3c0.2,2,0.3,4.1,0.3,6.2c0,3.6-0.8,8.3-2.1,13.8
				C256.2,196.5,227.3,258.3,208.8,295.4z"/>
		</g>
	</g>
	<g>
		<g>
			<path d="M238.6,143.9c-0.5-16-13.7-28.8-29.8-28.8c-16.1,0-29.3,12.8-29.8,28.8c0,0.3,0,0.7,0,1c0,7.2,2.6,13.8,6.8,19
				c5.5,6.6,13.8,10.9,23,10.9s17.6-4.3,23.1-10.9c4.2-5.2,6.8-11.8,6.8-19C238.7,144.6,238.7,144.3,238.6,143.9z M208.8,135.1
				c5.1,0,9.3,3.9,9.8,8.8c0,0.3,0,0.7,0,1c0,5.4-4.4,9.9-9.9,9.9c-5.4,0-9.9-4.4-9.9-9.9c0-0.4,0-0.7,0.1-1
				C199.5,139,203.7,135.1,208.8,135.1z"/>
		</g>
	</g>
</g>
</svg>
