<?xml version="1.0" encoding="utf-8"?>
<!-- Generator: Adobe Illustrator 21.1.0, SVG Export Plug-In . SVG Version: 6.00 Build 0)  -->
<svg version="1.1" id="Слой_2" xmlns="http://www.w3.org/2000/svg" xmlns:xlink="http://www.w3.org/1999/xlink" x="0px" y="0px"
	 viewBox="0 0 500 522.7" style="enable-background:new 0 0 500 522.7;" xml:space="preserve">
<style type="text/css">
	.st0{fill:#B4F1ED;}
</style>
<g>
	<g>
		<g>
			<path class="st0" d="M409.6,352.4c0,91-66.8,170.3-213.6,170.3c-71.2,0-146.1-19.8-196-55.1l47-91
				c38.9,29.4,92.5,46.3,146.1,46.3c59.5,0,96.2-25,96.2-66.8c0-40.4-26.4-66.8-119.7-66.8H38.1L64.5,0H378v95.4H163.7l-8.1,97.6
				h41.9C349.4,193.1,409.6,261.4,409.6,352.4z"/>
		</g>
		<g>
			<g>
				<path d="M499.8,297.3c-2.9-36.5-31.2-66-67.3-70.7c-3.3-0.4-6.6-0.6-10-0.6s-6.7,0.2-10,0.6c-12.7,1.6-24.5,6.4-34.5,13.5
					c-7.9,5.5-14.7,12.5-20,20.5c-7.1,10.7-11.6,23.2-12.7,36.7c-0.2,2-0.3,4.1-0.3,6.2c0,3.9,0.6,8.5,1.7,13.8
					c2.2,10.2,6.2,22.8,11.2,36.4c5.7,15.4,12.8,32.1,20,48.1c6.6,14.6,13.2,28.5,19,40.4c3.8,7.7,7.1,14.5,9.9,20
					c3.3,6.6,5.7,11.2,6.8,13.3l8.9,17.1l8.9-17.1c6.3-12.2,56.9-110.5,66.9-158.2c1.1-5.3,1.7-10,1.7-13.8
					C500,301.4,500,299.3,499.8,297.3z M477.9,317.3c-8,32.6-36.9,94.4-55.4,131.5c-13.4-26.8-32.1-66.5-44.5-98.7
					c-4.8-12.4-8.6-23.8-10.8-32.8c-1.4-5.5-2.1-10.2-2.1-13.8c0-2.1,0.1-4.2,0.3-6.2c1.2-11.4,5.8-21.7,12.6-30.2
					c10.6-12.9,26.6-21.2,44.5-21.2c29.6,0,54.1,22.5,57.2,51.3c0.2,2,0.3,4.1,0.3,6.2C480,307,479.3,311.7,477.9,317.3z"/>
			</g>
		</g>
		<g>
			<g>
				<path d="M452.3,297.3c-0.5-16-13.7-28.8-29.8-28.8c-16.1,0-29.3,12.8-29.8,28.8c0,0.3,0,0.7,0,1c0,7.2,2.6,13.8,6.8,19
					c5.5,6.6,13.8,10.9,23,10.9c9.3,0,17.6-4.3,23.1-10.9c4.2-5.2,6.8-11.8,6.8-19C452.4,297.9,452.4,297.6,452.3,297.3z
					 M422.5,308.2c-5.4,0-9.8-4.4-9.8-9.9c0-0.4,0-0.7,0.1-1c0.5-5,4.7-8.8,9.8-8.8c5.1,0,9.3,3.9,9.8,8.8c0,0.3,0.1,0.7,0.1,1
					C432.4,303.7,428,308.2,422.5,308.2z"/>
			</g>
		</g>
		<g>
			<g>
				<path d="M412.7,462.1H105.3c-13.7,0-24.8-11.1-24.8-24.8V163.2c0-6,3.7-11.4,9.3-13.6l166.7-65.7l166.7,65.7
					c5.6,2.2,9.3,7.6,9.3,13.6v82.7h-20v-71.6c0-6.1-3.8-11.6-9.5-13.7l-146.5-54.7L110,160.7c-5.7,2.1-9.5,7.6-9.5,13.7v263
					c0,2.6,2.1,4.8,4.8,4.8h307.4V462.1z"/>
			</g>
		</g>
		<g>
			<path d="M378,178.4h-32.5l-89-35.1l-89,35.1H135c0-4.2,2.5-7.9,6.4-9.4l115.1-45.3L371.6,169C375.4,170.5,378,174.2,378,178.4z"
				/>
		</g>
		<g>
			<rect x="135" y="220.4" width="20" height="226.2"/>
		</g>
		<g>
			<rect x="135.1" y="200.4" width="242.9" height="20"/>
		</g>
		<g>
			<path d="M378,220.4v46.8c-6.9,8.4-11.4,18.8-12.6,30.2c-0.2,2-0.3,4.1-0.3,6.2c0,3.6,0.8,8.3,2.1,13.8
				c2.2,9.1,6.1,20.4,10.8,32.8v96.5h-20V220.4H378z"/>
		</g>
		<g>
			<path d="M325.5,461.7h-138V357.5c0-14.8,12.1-26.9,26.9-26.9h84.2c14.8,0,26.9,12.1,26.9,26.9L325.5,461.7L325.5,461.7z
				 M207.5,441.7h98v-84.2c0-3.8-3.1-6.9-6.9-6.9h-84.2c-3.8,0-6.9,3.1-6.9,6.9L207.5,441.7L207.5,441.7z"/>
		</g>
		<g>
			<rect x="246.5" y="340.6" width="20" height="27.3"/>
		</g>
	</g>
	<rect x="135.1" y="200.4" width="242.9" height="20.4"/>
</g>
</svg>
