<?xml version="1.0" encoding="utf-8"?>
<!-- Generator: Adobe Illustrator 21.1.0, SVG Export Plug-In . SVG Version: 6.00 Build 0)  -->
<svg version="1.1" id="Слой_2" xmlns="http://www.w3.org/2000/svg" xmlns:xlink="http://www.w3.org/1999/xlink" x="0px" y="0px"
	 viewBox="0 0 510.1 530.8" style="enable-background:new 0 0 510.1 530.8;" xml:space="preserve">
<style type="text/css">
	.st0{fill:#B4F1ED;}
</style>
<g>
	<g>
		<path class="st0" d="M424.2,359.8c0,105-85.9,171.1-194.6,171.1C87.9,530.8-0.3,442-0.3,276C-0.3,98.3,106.9-0.8,261.8-0.8
			C316.2-0.8,369,11.8,405,34.5l-44,87.4c-28.6-19.1-61.7-25.7-96.2-25.7c-85.9,0-141,50.7-144.6,149c30.1-30.1,73.4-45.5,127-45.5
			C346.3,199.6,424.2,262.8,424.2,359.8z M308.9,365.6c0-47-34.5-77.1-87.4-77.1c-52.1,0-88.8,32.3-88.8,77.1
			c0,44,33,76.4,90.3,76.4C273.7,441.9,308.9,412.5,308.9,365.6z"/>
	</g>
	<g>
		<g>
			<path d="M400.8,243.6c-3.5,0-6.8,0.5-10,1.4v22c2.8-2.1,6.2-3.4,10-3.4s7.2,1.3,10,3.4v-22C407.7,244.1,404.3,243.6,400.8,243.6z
				 M410.8,432.8v-21.1c-1,3.2-1.5,6.7-1.5,10.6C409.3,426,409.8,429.6,410.8,432.8z M390.8,424.3l20-29.3v-25.1l-20,29.3V424.3z
				 M378,141.4H91.5c-18.1,0-32.8,14.7-32.8,32.8v264.3c0,18.1,14.7,32.8,32.8,32.8h220v-20h-220c-7,0-12.8-5.7-12.8-12.8V174.1
				c0-7,5.7-12.8,12.8-12.8H378c7,0,12.8,5.7,12.8,12.8v60.1h20v-60.1C410.8,156.1,396.2,141.4,378,141.4z M400.8,296.2
				c-3.8,0-7.2-1.3-10-3.4v22c3.2,0.9,6.5,1.4,10,1.4s6.8-0.5,10-1.4v-22C408,294.9,404.7,296.2,400.8,296.2z"/>
		</g>
	</g>
	<g>
		<g>
			<g>
				<path d="M234.8,106c-0.3-0.3-0.6-0.6-0.9-0.9l-31.2-31.2c-6.1-6.1-14.3-9.5-23-9.5s-16.8,3.4-23,9.5c-6.1,6.1-9.5,14.3-9.5,23
					s3.4,16.9,9.5,23l21.5,21.5l9.7,9.7c6.1,6.1,14.3,9.5,23,9.5c4.1,0,8.1-0.8,11.9-2.2c0.2-0.1,0.4-0.1,0.6-0.2
					c3.9-1.6,7.5-4,10.5-7.1c0.3-0.3,0.6-0.6,0.9-0.9c1.2-1.3,2.3-2.7,3.3-4.2s1.8-3,2.5-4.6c1.9-4.1,2.8-8.6,2.8-13.3
					C243.4,119.8,240.4,112.1,234.8,106z M170.9,105.7c-2.4-2.4-3.7-5.5-3.7-8.8s1.3-6.5,3.7-8.8c2.4-2.4,5.5-3.7,8.8-3.7
					s6.5,1.3,8.8,3.7l31.2,31.2c2.4,2.4,3.7,5.5,3.7,8.8s-1.3,6.5-3.7,8.8l0,0c-2.4,2.4-5.5,3.7-8.8,3.7s-6.5-1.3-8.8-3.7
					L170.9,105.7z"/>
			</g>
		</g>
		<g>
			<g>
				<path d="M312.9,73.9c-6.1-6.1-14.3-9.5-23-9.5s-16.8,3.4-23,9.5l-31.2,31.2c-0.3,0.3-0.6,0.6-0.9,0.9c-5.6,6-8.6,13.8-8.6,22
					c0,4.7,1,9.2,2.8,13.3c0.7,1.6,1.6,3.1,2.5,4.6c1,1.5,2.1,2.8,3.3,4.2c0.3,0.3,0.6,0.6,0.9,0.9c2.1,2.1,4.5,4,7.1,5.4
					c4.8,2.7,10.2,4.1,15.9,4.1c8.7,0,16.8-3.4,23-9.5l9.7-9.7l21.5-21.5c6.1-6.1,9.5-14.3,9.5-23C322.4,88.2,319,80,312.9,73.9z
					 M298.8,105.7l-31.2,31.2c-2.4,2.4-5.5,3.7-8.8,3.7s-6.5-1.3-8.8-3.7l0,0c-2.4-2.4-3.7-5.5-3.7-8.8s1.3-6.5,3.7-8.8l31.2-31.2
					c2.4-2.4,5.5-3.7,8.8-3.7s6.5,1.3,8.8,3.7c2.4,2.4,3.7,5.5,3.7,8.8S301.2,103.3,298.8,105.7z"/>
			</g>
		</g>
	</g>
	<g>
		<g>
			<rect x="72.5" y="208.4" width="320.7" height="20"/>
		</g>
	</g>
	<g>
		<g>
			<rect x="222.8" y="146" width="20" height="320.7"/>
		</g>
	</g>
	<g>
		<g>
			<g>
				<path d="M508.7,298.7l-26.6-70.6c-3.1-8.3-11.2-13.8-20-13.8H339.5c-8.9,0-16.9,5.6-20,13.9l-0.1,0.2L293,298.9
					c-0.9,2.4-1.4,4.9-1.4,7.5v182.6c0,11.8,9.6,21.4,21.4,21.4h175.7c11.8,0,21.4-9.6,21.4-21.4V306.3
					C510,303.7,509.7,301.1,508.7,298.7z M490,488.9c0,0.8-0.6,1.4-1.4,1.4H312.9c-0.8,0-1.4-0.6-1.4-1.4V306.3c0-0.2,0-0.3,0.1-0.5
					l26.5-70.6c0.2-0.5,0.7-0.9,1.3-0.9H462c0.6,0,1.1,0.3,1.3,0.9l26.6,70.6c0.1,0.2,0.1,0.3,0.1,0.5V488.9z"/>
			</g>
		</g>
		<g>
			<g>
				<path d="M410.8,245c-3.2-0.9-6.5-1.4-10-1.4s-6.8,0.5-10,1.4c-15.2,4.3-26.3,18.3-26.3,34.9c0,16.5,11.1,30.5,26.3,34.9
					c3.2,0.9,6.5,1.4,10,1.4s6.8-0.5,10-1.4c15.2-4.4,26.3-18.4,26.3-34.9S426,249.4,410.8,245z M410.8,292.7
					c-2.8,2.2-6.2,3.4-10,3.4s-7.2-1.3-10-3.4c-3.8-3-6.3-7.6-6.3-12.8s2.5-9.9,6.3-12.8c2.8-2.1,6.2-3.4,10-3.4s7.2,1.3,10,3.4
					c3.8,3,6.3,7.6,6.3,12.8S414.7,289.8,410.8,292.7z"/>
			</g>
		</g>
		<g>
			<g>
				<path d="M365.8,346.8c-14.7,0-25.1,10.8-25.1,27.8s10.4,27.8,25.1,27.8s25-10.7,25-27.8C390.7,357.4,380.4,346.8,365.8,346.8z
					 M365.8,390.6c-6.2,0-10.5-5.3-10.5-16s4.3-16,10.5-16c6.3,0,10.5,5.2,10.5,16S372,390.6,365.8,390.6z M425.9,347.9l-15.1,22
					l-20,29.3l-33.9,49.7h17.2l16.7-24.5l20-29.3l32.2-47.2H425.9z M434.3,394.3c-11.3,0-20,6.5-23.4,17.3c-1,3.2-1.5,6.7-1.5,10.6
					s0.5,7.4,1.5,10.6c3.4,10.8,12.2,17.3,23.4,17.3c14.7,0,25.1-10.8,25.1-27.8S448.9,394.3,434.3,394.3z M434.3,438.3
					c-6.2,0-10.5-5.2-10.5-16s4.3-16,10.5-16c6.3,0,10.5,5.3,10.5,16S440.7,438.3,434.3,438.3z"/>
			</g>
		</g>
	</g>
</g>
</svg>
