<?xml version="1.0" encoding="utf-8"?>
<!-- Generator: Adobe Illustrator 21.1.0, SVG Export Plug-In . SVG Version: 6.00 Build 0)  -->
<svg version="1.1" id="Слой_1" xmlns="http://www.w3.org/2000/svg" xmlns:xlink="http://www.w3.org/1999/xlink" x="0px" y="0px"
	 viewBox="0 0 182.4 159.8" style="enable-background:new 0 0 182.4 159.8;" xml:space="preserve">
<g>
	<g>
		<path d="M137.9,136.3H49.1c-7.6,0-14.1-5.9-14.8-13.5L22.4,36.2c-0.2-2.5-2.1-4.5-4.5-4.9l-14.1-2c-2.5-0.4-4.2-2.6-3.8-5.1
			c0.4-2.5,2.6-4.2,5.1-3.8l14.1,2c6.6,1,11.6,6.3,12.2,12.9l11.9,86.6c0.2,3,2.8,5.4,5.8,5.4h88.8c2.5,0,4.5,2,4.5,4.5
			S140.4,136.3,137.9,136.3z"/>
	</g>
	<g>
		<path d="M49.8,115.9c-2.3,0-4.2-1.7-4.5-4c-0.3-2.5,1.6-4.7,4-4.9l78.3-7.9c3.3-0.6,5.7-3.5,5.7-7V49.6L42.8,49
			c-2.5,0-4.5-2-4.5-4.5c0-2.5,2-4.5,4.5-4.5c0,0,0,0,0,0l92.3,0.5c4,0,7.2,3.3,7.2,7.3V92c0,7.8-5.6,14.5-13.3,15.8
			c-0.1,0-0.2,0-0.3,0l-78.4,7.9C50.1,115.9,50,115.9,49.8,115.9z M135.1,49.6L135.1,49.6L135.1,49.6z"/>
	</g>
	<circle cx="49.7" cy="149.9" r="9.9"/>
	<circle cx="119.6" cy="149.9" r="9.9"/>
</g>
<circle cx="142.4" cy="40" r="40"/>
</svg>
