<?xml version="1.0" encoding="utf-8"?>
<!-- Generator: Adobe Illustrator 21.1.0, SVG Export Plug-In . SVG Version: 6.00 Build 0)  -->
<svg version="1.1" id="Слой_1" xmlns="http://www.w3.org/2000/svg" xmlns:xlink="http://www.w3.org/1999/xlink" x="0px" y="0px"
	 viewBox="0 0 141.7 141.7" style="enable-background:new 0 0 141.7 141.7;" xml:space="preserve">
<g id="ватцап_1_">
	<g>
		<g>
			<path d="M71.1,141.9c-39,0-70.8-31.8-70.8-70.8C0.2,32,32,0.2,71.1,0.2S141.9,32,141.9,71C141.9,110.1,110.1,141.9,71.1,141.9z
				 M71.1,3.2C33.7,3.2,3.2,33.7,3.2,71.1s30.4,67.8,67.8,67.8s67.8-30.4,67.8-67.8C138.9,33.7,108.4,3.2,71.1,3.2z"/>
		</g>
		<g>
			<g>
				<path d="M39.2,100.8c0.6-1.9,1.1-3.7,1.6-5.6c1-3.3,2-6.6,3-9.9c0.2-0.5,0.1-0.9-0.2-1.4c-2.1-3.7-3.3-7.6-3.8-11.8
					c-0.9-8.9,1.4-16.7,7-23.6c5.1-6.2,11.7-9.8,19.5-11c4.6-0.7,9.1-0.4,13.5,0.9c6.2,1.8,11.4,5.2,15.5,10.2
					c3.6,4.3,5.7,9.4,6.8,14.9c0.1,0.4,0.2,0.9,0.2,1.3c0.1,2.3,0.2,4.3,0.1,6.6c-0.1,2.6-0.7,5.1-1.6,7.5c-1.1,3.2-2.6,6.2-4.8,8.9
					c-2.5,3.2-5.3,5.8-8.8,7.9c-3,1.8-6.1,3-9.4,3.8c-5.9,1.3-11.7,0.9-17.4-1.1c-1.5-0.5-3-1-4.3-1.9c-0.2-0.2-0.6-0.3-0.8-0.4
					c-5.4,1.7-10.7,3.6-16.2,5.1C39.4,100.9,39.3,100.8,39.2,100.8z M55.9,90.9c0.3,0.2,0.4,0.2,0.6,0.3c4,2.5,8.4,4,13.1,4.3
					c6.3,0.3,12.1-1.3,17.3-5c4.6-3.3,7.9-7.5,9.8-12.9c2.1-5.7,2.2-11.3,0.3-17.1c-1.5-4.8-4.1-8.9-7.8-12.1
					c-6.2-5.6-13.6-7.7-21.9-6.6c-6.5,0.8-12,3.8-16.3,8.7c-5.3,5.9-7.5,13-6.8,20.8c0.4,4.6,2.1,8.8,4.7,12.6
					c0.3,0.5,0.3,0.8,0.2,1.4c-1,2.4-1.9,4.8-2.8,7.1c-0.3,0.8-0.7,1.6-1,2.5c0.1,0.1,0.1,0.1,0.2,0.2
					C48.9,93.6,52.4,92.3,55.9,90.9z"/>
			</g>
			<g>
				<path d="M79.8,72.7c1.9,0.9,3.6,1.7,5.4,2.6c0.2,0.1,0.3,0.2,0.6,0.2c1.1,0.3,1.6,1.1,1.6,2.1c0.2,1.8-0.5,3.3-1.8,4.5
					c-1.7,1.6-3.9,2.1-6.2,1.7c-3.1-0.5-6.1-1.6-8.9-3c-3.5-1.8-6.6-4.3-9-7.4c-1.6-2.1-3.1-4.3-4.4-6.6c-1.5-2.6-1.9-5.5-1.1-8.5
					c0.5-2,1.5-3.5,3-4.8c0.8-0.7,1.8-0.8,2.8-0.6c0.3,0.1,0.7,0.4,0.9,0.7c1.1,2.1,2.1,4.3,3,6.4c0.5,1.1,0.4,2-0.4,2.9
					c-0.5,0.6-1,1.1-1.6,1.6c-0.8,0.8-0.9,1.3-0.2,2.3c1.8,2.9,3.9,5.5,6.6,7.5c1.1,0.8,2.5,1.6,3.7,2.3c0.7,0.4,1.5,0.2,2.1-0.4
					c1.1-1,2.1-2.1,3-3C79.3,73.1,79.5,72.9,79.8,72.7z"/>
			</g>
		</g>
	</g>
</g>
</svg>
