<?xml version="1.0" encoding="utf-8"?>
<!-- Generator: Adobe Illustrator 21.1.0, SVG Export Plug-In . SVG Version: 6.00 Build 0)  -->
<svg version="1.1" id="Слой_1" xmlns="http://www.w3.org/2000/svg" xmlns:xlink="http://www.w3.org/1999/xlink" x="0px" y="0px"
	 viewBox="0 0 141.7 141.7" style="enable-background:new 0 0 141.7 141.7;" xml:space="preserve">
<style type="text/css">
	.st0{fill:none;}
</style>
<g id="вк">
	<g>
		<g>
			<path class="st0" d="M33.4,54.8c2.4,0,4.4,0,6.4,0c1.8,0,3.6,0,5.4,0c1.3,0,1.6,0.3,2.2,1.5c1.7,3.7,3.4,7.5,5.7,10.9
				c1.2,1.8,2.6,3.4,4.2,4.8c0.9,0.8,1.9,0.6,2.7-0.7c0.5-0.9,0.9-1.9,1.1-2.9c0.6-3.7,0.4-7.5-0.4-11.2c-0.3-1.1-1.1-1.8-2.2-2.1
				C58,55,57.6,54.8,57,54.6c0-0.1,0-0.2,0.1-0.3c0.1-0.3,0.3-0.6,0.6-0.7c2-0.8,4-1,6.1-1.1c1.7-0.1,3.2,0,4.9,0.1
				c1.1,0.1,2.3,0.4,3.4,0.6c0.7,0.1,1.2,0.7,1.3,1.5c0.1,2.7,0.1,5.1,0.2,8c0,1.7,0.1,3.5,0,5.2s0.7,3,1.9,4.1c0.5,0.5,1,0.4,1.6,0
				c1.6-1.2,2.9-2.9,4-4.5c1.4-1.9,2.8-3.9,3.9-6c1-1.9,1.7-4,2.5-6c0.2-0.5,0.4-0.9,1-0.9c1.8,0,3.5-0.1,5.3-0.1c2.6,0,5.1,0,7.7,0
				c0.4,0,0.6,0,1,0.1c0.8,0.1,0.9,0.3,0.8,1.1c-0.4,1.8-1.3,3.4-2.4,4.8c-2.8,4.1-5.6,8.1-8.5,12.1c-0.4,0.6-1.1,1.2-1,2.1
				c0.1,0.7,0.3,1.3,0.8,1.7c2.6,2.6,5.2,5.1,7.6,7.7c1.2,1.4,2.1,2.9,3.1,4.4c0.6,0.9,0.4,1.9-0.2,2.9c-1.5,0.1-3.1,0.1-4.6,0.1
				c-2.6,0.1-5.1,0.1-7.7,0.1c-1.8,0-3.4-0.6-4.6-1.9c-2.1-2.1-4.4-4.3-6.4-6.5c-1.5-1.5-3.2-1.4-4.4,0.5c-0.9,1.4-1.1,2.8-1.2,4.3
				c-0.1,0.8-0.1,1.6-0.3,2.4c-0.1,0.6-0.4,0.9-1,0.9c-3.7,0-7.5,0.3-11.1-0.9c-3.1-1-5.9-2.6-8.4-4.6c-4.1-3.3-7.3-7.4-10.1-11.9
				c-1.4-2.3-2.9-4.6-4.1-6.9c-1.1-2-1.9-4.1-2.9-6.2c-0.7-1.6-1.4-3.1-2.1-4.7C33.6,55.5,33.4,55.3,33.4,54.8z"/>
			<path d="M90.4,93.2c-2.2,0-4.1-0.8-5.6-2.3l-1.6-1.6c-1.6-1.6-3.3-3.3-4.9-5c-0.4-0.4-0.8-0.6-1.1-0.5c-0.3,0-0.6,0.3-0.9,0.8
				c-0.6,1-0.9,2.1-1,3.6v0.2c-0.1,0.7-0.1,1.6-0.3,2.4c-0.2,1.3-1.2,2.2-2.5,2.2c-0.6,0-1.2,0-1.8,0c-3.2,0-6.5,0.1-9.8-1
				c-3.2-1-6.2-2.7-8.9-4.9c-3.7-3-6.9-6.7-10.4-12.2c-1.4-2.3-2.9-4.6-4.2-7c-0.7-1.3-1.3-2.6-1.9-3.9c-0.4-0.8-0.7-1.6-1.1-2.4
				c-0.7-1.6-1.4-3.2-2.1-4.8l-0.1-0.4c-0.2-0.5-0.3-0.8-0.4-1.4c-0.1-0.4,0.1-0.9,0.4-1.2s0.7-0.5,1.1-0.5h11.8
				c2.1,0,2.9,0.8,3.6,2.4l0.2,0.5c1.6,3.5,3.3,7.1,5.4,10.2c1.2,1.7,2.5,3.2,4,4.5c0.1,0.1,0.1,0.1,0.1,0.1s0.1-0.1,0.3-0.5
				c0.4-0.7,0.8-1.6,0.9-2.4c0.5-3.4,0.4-7-0.4-10.7c-0.1-0.3-0.3-0.7-1.2-1c-0.2-0.1-0.5-0.2-0.7-0.2c-0.2-0.1-0.4-0.2-0.7-0.2
				c-0.8-0.2-1.2-1-1-1.8l0.1-0.3c0.2-0.8,0.7-1.4,1.4-1.7c2.1-0.9,4.2-1.1,6.6-1.2c1.7-0.1,3.3,0,5.1,0.1c1.2,0.1,2.5,0.4,3.7,0.7
				c1.3,0.3,2.3,1.4,2.4,2.8C75,56,75,57.3,75,58.7c0,1.3,0,2.6,0.1,4c0,0.7,0,1.4,0,2.1c0,1.1,0,2.1,0,3.2c0,1,0.3,1.9,1.2,2.8
				c1.4-1.1,2.5-2.6,3.5-4l0.6-0.8c1.1-1.6,2.3-3.3,3.3-5c0.7-1.4,1.3-3,1.9-4.5c0.2-0.5,0.4-0.9,0.5-1.4c0.2-0.5,0.8-1.8,2.4-1.8
				c0.9,0,1.7,0,2.6,0s1.8,0,2.7,0h7.7c0.4,0,0.8,0,1.2,0.1c0.4,0.1,1.2,0.2,1.7,0.9s0.4,1.6,0.3,1.9c-0.4,1.8-1.2,3.5-2.6,5.4
				c-2.6,3.8-5.5,7.9-8.5,12.1c-0.1,0.1-0.2,0.3-0.3,0.4c-0.3,0.4-0.4,0.6-0.4,0.7c0.1,0.5,0.2,0.6,0.3,0.7l0.1,0.1
				c0.7,0.7,1.5,1.5,2.2,2.2c1.8,1.8,3.7,3.7,5.5,5.6c1,1.2,1.9,2.4,2.6,3.6c0.2,0.3,0.4,0.7,0.6,1c0.5,0.8,1.2,2.4-0.2,4.5
				c-0.3,0.4-0.7,0.7-1.2,0.7c-1.7,0.1-3.2,0.1-4.6,0.1C95.5,93.2,92.9,93.2,90.4,93.2z M72,90.4L72,90.4L72,90.4z M77.3,80.8
				c1.1,0,2.2,0.5,3.2,1.5c1.6,1.7,3.2,3.3,4.8,4.9l1.6,1.6c0.9,0.9,2.1,1.4,3.5,1.4c2.5,0,5.1,0,7.7-0.1c1.2,0,2.4,0,3.7-0.1
				c0.1-0.3,0-0.5-0.1-0.6c-0.2-0.3-0.4-0.7-0.7-1c-0.8-1.2-1.5-2.3-2.4-3.3c-1.7-1.8-3.6-3.7-5.4-5.5c-0.7-0.7-1.5-1.4-2.2-2.2
				c-0.7-0.6-1.1-1.5-1.3-2.7c-0.1-1.3,0.6-2.2,1-2.8c0.1-0.1,0.2-0.2,0.2-0.3c3-4.3,5.9-8.3,8.5-12.2c1-1.3,1.6-2.5,2-3.6
				c0,0-0.1,0-0.2,0h-7.7c-0.9,0-1.7,0-2.6,0c-0.8,0-1.5,0-2.3,0c-0.2,0.4-0.3,0.8-0.5,1.3c-0.6,1.6-1.2,3.2-2,4.8
				c-1,1.9-2.3,3.7-3.5,5.4L82,68.1c-1.2,1.7-2.5,3.5-4.3,4.8c-1.2,0.9-2.5,0.9-3.5-0.1c-1.6-1.6-2.4-3.4-2.3-5.3c0-1,0-2,0-3.1
				c0-0.7,0-1.4,0-2c-0.1-1.4-0.1-2.7-0.1-4s0-2.6-0.1-3.9c0-0.1-0.1-0.1-0.1-0.1c-1.2-0.3-2.2-0.6-3.2-0.6
				c-1.7-0.2-3.1-0.2-4.7-0.1c-1.2,0.1-2.4,0.1-3.4,0.4c1.1,0.8,1.5,1.7,1.7,2.5c0.9,4.1,1,8.1,0.5,11.8c-0.2,1.1-0.6,2.4-1.3,3.5
				c-0.8,1.4-1.8,1.8-2.5,1.9c-0.6,0.1-1.5,0-2.5-0.8c-1.7-1.5-3.2-3.1-4.5-5.1c-2.3-3.4-4-7.1-5.6-10.7L46,56.9
				c-0.2-0.4-0.3-0.6-0.3-0.6s-0.1,0-0.5,0h-9.7c0.6,1.3,1.2,2.7,1.8,4c0.4,0.8,0.7,1.6,1.1,2.4c0.6,1.3,1.1,2.5,1.8,3.7
				c1.3,2.3,2.7,4.6,4.1,6.8c3.3,5.2,6.3,8.7,9.7,11.5c2.5,2,5.1,3.5,8,4.4c2.8,0.9,5.7,0.9,8.8,0.9c0.5,0,0.9,0,1.4,0
				c0.1-0.6,0.1-1.2,0.2-1.8V88c0.1-1.2,0.3-3.1,1.4-5c1-1.6,2.2-2.1,3.1-2.2C77,80.8,77.1,80.8,77.3,80.8z"/>
		</g>
		<g>
			<path d="M71.1,141.9c-39,0-70.8-31.8-70.8-70.8C0.2,32,32,0.2,71.1,0.2S141.9,32,141.9,71C141.9,110.1,110.1,141.9,71.1,141.9z
				 M71.1,3.2C33.7,3.2,3.2,33.7,3.2,71.1s30.4,67.8,67.8,67.8s67.8-30.4,67.8-67.8C138.9,33.7,108.4,3.2,71.1,3.2z"/>
		</g>
	</g>
</g>
</svg>
