<?xml version="1.0" encoding="utf-8"?>
<!-- Generator: Adobe Illustrator 21.1.0, SVG Export Plug-In . SVG Version: 6.00 Build 0)  -->
<svg version="1.1" id="Слой_1" xmlns="http://www.w3.org/2000/svg" xmlns:xlink="http://www.w3.org/1999/xlink" x="0px" y="0px"
	 viewBox="0 0 141.7 141.7" style="enable-background:new 0 0 141.7 141.7;" xml:space="preserve">
<style type="text/css">
	.st0{fill:#020202;}
</style>
<g>
	<g>
		<g>
			<path d="M71.1,141.9c-39,0-70.8-31.8-70.8-70.8C0.2,32,32,0.2,71.1,0.2S141.9,32,141.9,71C141.9,110.1,110.1,141.9,71.1,141.9z
				 M71.1,3.2C33.7,3.2,3.2,33.7,3.2,71.1s30.4,67.8,67.8,67.8s67.8-30.4,67.8-67.8C138.9,33.7,108.4,3.2,71.1,3.2z"/>
		</g>
	</g>
	<g>
		<path class="st0" d="M81.8,102.3H60.4c-11.5,0-20.8-9.3-20.8-20.8V60.2c0-11.5,9.3-20.8,20.8-20.8h21.3c11.5,0,20.8,9.3,20.8,20.8
			v21.3C102.6,93,93.2,102.3,81.8,102.3z M60.4,42.4c-9.8,0-17.8,8-17.8,17.8v21.3c0,9.8,8,17.8,17.8,17.8h21.3
			c9.8,0,17.8-8,17.8-17.8V60.2c0-9.8-8-17.8-17.8-17.8H60.4z"/>
	</g>
	<g>
		<path class="st0" d="M71.1,87.1c-8.9,0-16.2-7.3-16.2-16.2c0-8.9,7.3-16.2,16.2-16.2c8.9,0,16.2,7.3,16.2,16.2
			C87.3,79.8,80,87.1,71.1,87.1z M71.1,57.6c-7.3,0-13.2,5.9-13.2,13.2c0,7.3,5.9,13.2,13.2,13.2c7.3,0,13.2-5.9,13.2-13.2
			C84.3,63.6,78.4,57.6,71.1,57.6z"/>
	</g>
	<g>
		<path class="st0" d="M89.4,57.8c-2.5,0-4.5-2-4.5-4.5s2-4.5,4.5-4.5c2.5,0,4.5,2,4.5,4.5S91.9,57.8,89.4,57.8z M89.4,51.8
			c-0.8,0-1.5,0.7-1.5,1.5s0.7,1.5,1.5,1.5c0.8,0,1.5-0.7,1.5-1.5S90.2,51.8,89.4,51.8z"/>
	</g>
</g>
</svg>
