<?xml version="1.0" encoding="utf-8"?>
<!-- Generator: Adobe Illustrator 21.1.0, SVG Export Plug-In . SVG Version: 6.00 Build 0)  -->
<svg version="1.1" id="Слой_1" xmlns="http://www.w3.org/2000/svg" xmlns:xlink="http://www.w3.org/1999/xlink" x="0px" y="0px"
	 viewBox="0 0 141.7 141.7" style="enable-background:new 0 0 141.7 141.7;" xml:space="preserve">
<style type="text/css">
	.st0{fill:none;}
</style>
<g id="телега">
	<g>
		<g>
			<path d="M71.1,141.9c-39,0-70.8-31.8-70.8-70.8C0.2,32,32,0.2,71.1,0.2S141.9,32,141.9,71C141.9,110.1,110.1,141.9,71.1,141.9z
				 M71.1,3.2C33.7,3.2,3.2,33.7,3.2,71.1s30.4,67.8,67.8,67.8s67.8-30.4,67.8-67.8C138.9,33.7,108.4,3.2,71.1,3.2z"/>
		</g>
		<g>
			<path class="st0" d="M69.1,83.8c-1.6,1.4-3,2.8-4.6,4.2c-1.6,1.4-3.1,2.9-4.7,4.3c-1.3,1.1-2.5,1-3.3-0.6
				c-0.4-0.7-0.7-1.5-0.9-2.3C53.7,84,51.8,78.6,50,73.1c-0.4-1.1-1.1-1.8-2.3-2.2c-4.3-1.4-8.5-2.8-12.8-4.2
				c-0.7-0.2-1.3-0.5-1.4-1.3c-0.1-0.9,0.4-1.7,1.3-2c2.4-1,4.7-2,7.2-2.9c7.1-2.8,14.2-5.5,21.3-8.2c7.5-2.9,15.1-5.8,22.7-8.7
				c2.9-1.1,5.9-2.3,8.8-3.4c1-0.4,2-0.7,3-0.8c1.1-0.2,2.3,0.8,2.5,2.1c0.1,0.7-0.1,1.6-0.2,2.3c-1.5,7.5-3,15.1-4.6,22.7
				c-1.2,6.2-2.5,12.4-3.8,18.7c-0.6,2.9-1.1,5.6-1.7,8.5s-2.9,3.8-5.4,2c-2-1.4-3.9-2.9-5.9-4.4c-3-2.3-6-4.5-9-6.8
				C69.7,84.2,69.5,84.1,69.1,83.8z M88.4,49.7c-0.1-0.1-0.1-0.2-0.2-0.2C76.1,56.7,64,64,51.8,71.2c1.9,5.5,3.8,10.8,5.6,16.1
				c0.1,0,0.2,0,0.2-0.1c0.1-0.2,0.2-0.3,0.2-0.5c0.7-2.9,1.3-6,1.9-8.9c0.2-0.9,0.3-1.7,1.1-2.3c2.1-1.9,4.2-3.8,6.2-5.8
				c6.9-6.5,13.7-12.8,20.6-19.3C87.9,50.3,88.1,50,88.4,49.7z"/>
			<path d="M87.1,98.1c-1.1,0-2.2-0.4-3.3-1.1c-1.3-1-2.7-2-4-3c-0.6-0.5-1.3-1-1.9-1.5c-1.5-1.1-2.9-2.2-4.4-3.3
				c-1.5-1.1-2.9-2.2-4.4-3.3c-0.4,0.4-0.8,0.8-1.3,1.2c-0.8,0.7-1.5,1.4-2.3,2.1s-1.6,1.4-2.3,2.1c-0.8,0.7-1.6,1.4-2.3,2.1
				c-1.3,1.1-2.4,1.2-3.1,1.1c-0.7-0.1-1.7-0.6-2.5-2.1c-0.5-0.9-0.8-1.7-1-2.6c-1.9-5.3-3.7-10.7-5.6-16.2c-0.3-0.7-0.6-1-1.3-1.3
				l-12.8-4.2c-0.7-0.2-2.2-0.7-2.4-2.6c-0.2-1.5,0.7-3,2.2-3.5c2.3-0.9,4.7-2,7.2-2.9c6.6-2.6,13.5-5.2,21.3-8.2
				c5.9-2.3,11.9-4.6,17.7-6.8l13.8-5.3c0.9-0.4,2-0.7,3.3-0.9c0.8-0.2,1.7,0,2.5,0.6c0.9,0.7,1.6,1.7,1.7,2.8c0.1,1-0.1,2-0.3,2.8
				c-1.2,6.2-2.5,12.6-3.8,18.8L97,66.8c-0.6,3.1-1.2,6.2-1.9,9.3c-0.6,3.1-1.3,6.2-1.9,9.3c-0.3,1.4-0.6,2.9-0.9,4.3
				s-0.6,2.8-0.9,4.2c-0.4,1.9-1.4,3.2-2.9,3.8C88.2,98,87.6,98.1,87.1,98.1z M71,83.5c1.4,1.1,2.9,2.2,4.3,3.3
				c1.5,1.1,2.9,2.2,4.4,3.3c0.6,0.5,1.3,1,2,1.5c1.3,1,2.6,2,3.9,2.9c0.8,0.5,1.5,0.7,2,0.5s0.9-0.8,1-1.6c0.3-1.4,0.6-2.8,0.9-4.2
				c0.3-1.4,0.6-2.8,0.9-4.3c0.6-3.1,1.2-6.2,1.9-9.3c0.6-3.1,1.3-6.2,1.9-9.3l0.8-3.9c1.3-6.2,2.6-12.6,3.8-18.8
				c0.1-0.6,0.3-1.3,0.2-1.8c-0.1-0.5-0.5-0.8-0.6-0.8c-1.1,0.2-2,0.4-2.8,0.7L81.8,47C76,49.2,70,51.5,64.1,53.8
				c-7.7,2.9-14.7,5.6-21.3,8.2c-2.5,0.9-4.9,1.9-7.2,2.9c-0.3,0.1-0.4,0.2-0.4,0.4c0.1,0,0.2,0.1,0.4,0.1l12.8,4.2
				c0.9,0.3,1.6,0.7,2.1,1.3c0.1-0.4,0.3-0.7,0.7-0.9c7.5-4.4,14.9-8.9,22.4-13.3c4.7-2.8,9.4-5.6,14.1-8.4c0.6-0.4,1.3-0.3,1.8,0.2
				c0.2,0.2,0.3,0.3,0.3,0.4c0.4,0.6,0.4,1.4-0.2,1.9c-0.1,0.1-0.1,0.1-0.2,0.2c-0.2,0.2-0.4,0.4-0.6,0.6c-3.4,3.2-6.8,6.4-10.2,9.6
				c-3.4,3.2-6.9,6.4-10.3,9.7c-2,2-4.1,3.9-6.3,5.8c-0.3,0.3-0.4,0.6-0.6,1.4c-0.6,3.2-1.3,6.5-1.9,9c0,0.1-0.1,0.2-0.1,0.3
				L59,87.9c-0.1,0.1-0.2,0.3-0.3,0.4c-0.4,0.4-1.1,0.6-1.7,0.5c0,0.1,0,0.1,0.1,0.2c0.3,0.9,0.5,1.5,0.8,2.1
				c0.2,0.4,0.4,0.5,0.4,0.6c0,0,0.2-0.1,0.6-0.4c0.8-0.7,1.5-1.4,2.3-2.1s1.6-1.5,2.4-2.2s1.5-1.4,2.3-2.1s1.5-1.4,2.3-2.1
				c0.5-0.5,1.3-0.5,1.9-0.1l0.2,0.1C70.4,82.9,70.7,83.1,71,83.5z M58.3,91.5L58.3,91.5L58.3,91.5z M53.6,71.8
				c1.2,3.6,2.5,7.1,3.7,10.6c0.3-1.6,0.7-3.3,1-5c0.2-0.9,0.4-2.3,1.6-3.2c2-1.8,4.1-3.8,6.1-5.7c3.5-3.3,6.9-6.5,10.4-9.7
				c0.7-0.6,1.3-1.2,2-1.8c-1.1,0.7-2.3,1.4-3.4,2C67.8,63.4,60.7,67.6,53.6,71.8z"/>
		</g>
	</g>
</g>
</svg>
