<?xml version="1.0" encoding="utf-8"?>
<!-- Generator: Adobe Illustrator 21.1.0, SVG Export Plug-In . SVG Version: 6.00 Build 0)  -->
<svg version="1.1" id="Слой_1" xmlns="http://www.w3.org/2000/svg" xmlns:xlink="http://www.w3.org/1999/xlink" x="0px" y="0px"
	 viewBox="0 0 141.7 141.7" style="enable-background:new 0 0 141.7 141.7;" xml:space="preserve">
<style type="text/css">
	.st0{fill:none;}
</style>
<g id="фейсбук">
	<g>
		<g>
			<path d="M71.1,141.9c-39,0-70.8-31.8-70.8-70.8C0.2,32,32,0.2,71.1,0.2S141.9,32,141.9,71C141.9,110.1,110.1,141.9,71.1,141.9z
				 M71.1,3.2C33.7,3.2,3.2,33.7,3.2,71.1s30.4,67.8,67.8,67.8s67.8-30.4,67.8-67.8C138.9,33.7,108.4,3.2,71.1,3.2z"/>
		</g>
		<g>
			<path class="st0" d="M87.4,34.9c0,3.3,0,6.6,0,9.9c-0.3,0-0.6,0.1-0.9,0.1c-2,0-3.9,0-5.9,0c-2.8-0.1-5,1.9-4.9,4.9
				c0.1,2.4-0.1,4.8-0.1,7.3c0,1.3,0.3,1.7,1.7,1.7c2.9,0,5.8,0,8.8,0c0.3,0,0.6,0,1.1,0.1c-0.6,3.7-1.1,7.2-1.7,10.8
				c-0.5,0-0.9,0-1.3,0c-2.4,0-4.8,0-7.1,0c-1.2,0-1.5,0.4-1.5,1.6c0,6.5,0,12.9,0,19.4c0,2.6,0,5.3,0,7.9c0,0.3,0,0.6,0,1
				c-3.7,0-7.4,0-11.1,0c0-0.2,0-0.5,0-0.7c0-9.2,0-18.3,0-27.5c0-1.2-0.3-1.5-1.6-1.5c-2.6,0-5.3,0-7.9,0c-0.1,0-0.3,0-0.6,0
				c0-3.6,0-7.2,0-10.9c0.3,0,0.6,0,0.8,0c2.6,0,5.1,0,7.7,0c1.3,0,1.6-0.3,1.6-1.7c0.1-3.5,0-7.1,0.2-10.7s1.8-6.5,4.6-8.8
				c2.3-1.9,5-2.8,8-2.9c3.2-0.1,6.4,0,9.6,0C86.9,34.9,87.2,34.9,87.4,34.9z"/>
			<path d="M77,101H62.8V71.3l0,0h-0.1h-9.9v-14h10h0.1c0,0,0-0.1,0-0.2c0-1.2,0-2.4,0-3.5c0-2.4,0-4.8,0.2-7.2
				c0.2-3.9,2-7.3,5.1-9.9c2.4-2.1,5.4-3.2,8.9-3.2c2.1,0,4.3,0,6.5,0c1.1,0,2.1,0,3.2,0H87l0.2,0.1c0,0,0.1,0,0.2,0h1.5v12.9h-1.5
				c-0.1,0-0.2,0-0.3,0c-0.2,0-0.4,0-0.6,0h-5.9c-1,0-1.9,0.3-2.5,0.9c-0.6,0.6-0.9,1.5-0.9,2.5c0.1,1.9,0,3.7-0.1,5.5
				c0,0.6,0,1.2-0.1,1.8c0,0.1,0,0.1,0,0.2c0,0,0.1,0,0.2,0H86c0.4,0,0.7,0,1.3,0.1l1.5,0.2L88.6,59c-0.4,2.5-0.8,4.9-1.1,7.3
				L86.8,71H77l0,0v0.1V101z M65.8,98H74V71.2c0-2.6,1.6-3.1,3-3.1h7.2l0.3-2.2c0.3-1.9,0.6-3.8,0.9-5.7h-8.2
				c-2.1,0-3.2-1.1-3.2-3.2c0-0.6,0-1.3,0.1-1.9c0.1-1.8,0.1-3.6,0.1-5.4c0-1.8,0.6-3.5,1.8-4.7c1.2-1.2,2.8-1.8,4.7-1.8H86v-7
				c-0.8,0-1.6,0-2.4,0c-2.1,0-4.3,0-6.4,0c-2.7,0.1-5.1,0.9-7,2.5c-2.5,2.1-3.9,4.7-4,7.7c-0.1,2.3-0.2,4.7-0.2,7
				c0,1.2,0,2.4,0,3.6c0,1.3-0.3,3.1-3.1,3.1h-7V68h6.9c2.1,0,3.1,1,3.1,3L65.8,98L65.8,98z M62.8,70.9L62.8,70.9L62.8,70.9z"/>
		</g>
	</g>
</g>
</svg>
